<svg width="32" height="32" viewBox="0 0 32 32" fill="none" xmlns="http://www.w3.org/2000/svg">
<rect width="32" height="32" rx="4" fill="url(#paint0_linear_618_8)"/>
<path d="M11 10.7H21V0.7H11V10.7Z" fill="white"/>
<g filter="url(#filter0_d_618_8)">
<path d="M20.42 22.38C20.42 23.0067 20.2733 23.5467 19.98 24C19.7 24.44 19.2333 24.8467 18.58 25.22C18.14 25.4867 17.6267 25.6867 17.04 25.82C16.4533 25.9533 15.86 26.02 15.26 26.02C14.6467 26.02 13.8867 25.82 12.98 25.42C12.3267 25.1 11.8067 24.72 11.42 24.28C11.0467 23.84 10.86 23.36 10.86 22.84C10.86 22.48 10.94 22.22 11.1 22.06C11.26 21.8867 11.52 21.8 11.88 21.8C12.0667 21.8 12.26 21.88 12.46 22.04C12.66 22.1867 12.78 22.3333 12.82 22.48C13.0067 23.0267 13.3333 23.4467 13.8 23.74C14.2667 24.02 14.8467 24.16 15.54 24.16C16.34 24.16 17.0067 24.0133 17.54 23.72C18.0867 23.4267 18.36 23.0333 18.36 22.54C18.36 22.06 18.0667 21.6333 17.48 21.26C16.8933 20.8867 16.2933 20.6267 15.68 20.48C14.8 20.24 14.02 19.9533 13.34 19.62C12.6333 19.2733 12.1067 18.8467 11.76 18.34C11.4133 17.8333 11.24 17.3 11.24 16.74C11.24 16.22 11.42 15.6933 11.78 15.16C12.14 14.6133 12.5667 14.22 13.06 13.98C13.3267 13.8467 13.78 13.7067 14.42 13.56C15.0733 13.4 15.5467 13.32 15.84 13.32C16.2267 13.32 16.6533 13.3667 17.12 13.46C17.5867 13.5533 17.9667 13.6867 18.26 13.86C18.8467 14.1933 19.28 14.4933 19.56 14.76C19.84 15.0267 19.98 15.36 19.98 15.76C19.98 16 19.8867 16.2133 19.7 16.4C19.5267 16.5867 19.22 16.68 18.78 16.68C18.6733 16.68 18.5667 16.6333 18.46 16.54C18.3533 16.4467 18.22 16.3067 18.06 16.12C17.8467 15.84 17.64 15.6533 17.44 15.56C17.24 15.4933 16.9467 15.42 16.56 15.34C16.1867 15.26 15.8533 15.22 15.56 15.22C15.24 15.22 14.9067 15.2867 14.56 15.42C14.2133 15.5533 13.92 15.7467 13.68 16C13.4533 16.24 13.34 16.52 13.34 16.84C13.34 17.1067 13.46 17.34 13.7 17.54C13.9533 17.7267 14.2533 17.88 14.6 18C15 18.16 15.4333 18.3 15.9 18.42C16.5133 18.6067 17.0133 18.78 17.4 18.94C17.8 19.0867 18.1867 19.2733 18.56 19.5C19.2133 19.8867 19.6867 20.2867 19.98 20.7C20.2733 21.1 20.42 21.66 20.42 22.38Z" fill="url(#paint1_linear_618_8)"/>
</g>
<defs>
<filter id="filter0_d_618_8" x="6.85999" y="10.3199" width="17.5601" height="20.7001" filterUnits="userSpaceOnUse" color-interpolation-filters="sRGB">
<feFlood flood-opacity="0" result="BackgroundImageFix"/>
<feColorMatrix in="SourceAlpha" type="matrix" values="0 0 0 0 0 0 0 0 0 0 0 0 0 0 0 0 0 0 127 0" result="hardAlpha"/>
<feOffset dy="1"/>
<feGaussianBlur stdDeviation="2"/>
<feComposite in2="hardAlpha" operator="out"/>
<feColorMatrix type="matrix" values="0 0 0 0 0.945098 0 0 0 0 0.941176 0 0 0 0 0.996078 0 0 0 0.63 0"/>
<feBlend mode="normal" in2="BackgroundImageFix" result="effect1_dropShadow_618_8"/>
<feBlend mode="normal" in="SourceGraphic" in2="effect1_dropShadow_618_8" result="shape"/>
</filter>
<linearGradient id="paint0_linear_618_8" x1="0" y1="0" x2="36.3991" y2="25.7917" gradientUnits="userSpaceOnUse">
<stop stop-color="#7A52C0"/>
<stop offset="0.690946" stop-color="#39265A"/>
</linearGradient>
<linearGradient id="paint1_linear_618_8" x1="14.5" y1="13.5" x2="17" y2="27" gradientUnits="userSpaceOnUse">
<stop offset="0.715" stop-color="white"/>
<stop offset="1" stop-color="#DFC9A5"/>
</linearGradient>
</defs>
</svg>
